<?xml version="1.0" encoding="utf-8"?>
<!-- Generator: Adobe Illustrator 22.1.0, SVG Export Plug-In . SVG Version: 6.00 Build 0)  -->
<svg version="1.1" xmlns="http://www.w3.org/2000/svg" xmlns:xlink="http://www.w3.org/1999/xlink" x="0px" y="0px"
	 viewBox="0 0 458 575" style="enable-background:new 0 0 458 575;" xml:space="preserve">
<style type="text/css">
	.st0{fill:#FFFFFF;stroke:#FFFFFF;stroke-width:3.7;stroke-linecap:round;stroke-miterlimit:10;}
	.st1{fill:none;stroke:#FFFFFF;stroke-width:3.7;stroke-linecap:round;stroke-miterlimit:10;}
	.st2{fill:none;stroke:#FFFFFF;stroke-width:3.7;stroke-linejoin:round;stroke-miterlimit:10;}
	.st3{fill:none;stroke:#FFFFFF;stroke-width:3.7;stroke-miterlimit:10;}
	.st4{fill:#FFFFFF;}
	.st5{font-family:'AristaProTrial-Thin';}
	.st6{font-size:162px;}
	.st7{fill:none;stroke:#FFFFFF;stroke-miterlimit:10;}
</style>
<g id="Слой_2">
</g>
<g id="_x33__ver">
	<g id="letter_O__x28_копия2_x29_">
		<path class="st0" d="M156.8,469.1"/>
		<g id="round__x28_копия2_x29_">
			<path class="st1" d="M171.3,496c-12.6-10.9-16.4-21-16.4-37.3c0-25.5,18.9-43.2,35.6-48.9"/>
			<path class="st1" d="M235.7,418.5c11.2,10.2,20.3,21.8,19.5,40.2c-1.1,25.1-15.3,38-37.8,47.8"/>
		</g>
		<g id="lightning__x28_копия2_x29_">
			<polyline class="st2" points="254.4,453.7 217.8,432.8 229.5,392.3 155.3,452.8 			"/>
			<polyline class="st2" points="154.6,461.9 187.7,476.6 178.4,524.4 254.8,461.6 			"/>
		</g>
		<g id="points__x28_копия2_x29_">
			<circle class="st3" cx="184.2" cy="456.3" r="6.4"/>
			<circle class="st3" cx="204" cy="456.3" r="6.4"/>
			<circle class="st3" cx="223.7" cy="456.3" r="6.4"/>
		</g>
	</g>
	<g id="other_letters__x28_копия2_x29_">
		<text transform="matrix(1 0 0 1 54.3333 509.8565)" class="st4 st5 st6">B</text>
		<text transform="matrix(1 0 0 1 54.3333 509.8565)" class="st7 st5 st6">B</text>
		<text transform="matrix(1 0 0 1 270.8333 509.8565)" class="st4 st5 st6">L</text>
		<text transform="matrix(1 0 0 1 332.8333 509.8561)" class="st4 st5 st6">T</text>
	</g>
</g>
</svg>
